External Loads File
version=1
nRows=86
nColumns=13
Range=5.000000e-03-10 seconds
endheader
time 	forceRightX 	forceRightY 	forceRightZ 	pointRightX 	pointRightY 	pointRightZ 	forceLeftX 	forceLeftY 	forceLeftZ 	pointLeftX 	pointLeftY 	pointLeftZ 		
7.505000 122.131192 262.684443 -0.000000 0.261838 0.148119 -0.124992 -30.681664 56.426312 -0.000000 0.378328 0.483729 -0.365556
7.510000 115.028233 235.954595 -0.000000 0.252821 0.151630 -0.125140 -34.141775 64.082309 -0.000000 0.386220 0.480631 -0.366094
7.515000 107.763938 208.709430 -0.000000 0.243911 0.155754 -0.125171 -37.372940 73.147904 -0.000000 0.393821 0.476862 -0.366127
7.520000 100.185363 181.200603 -0.000000 0.235274 0.160342 -0.125170 -40.290135 83.955742 -0.000000 0.401176 0.472534 -0.366719
7.525000 92.242558 153.854875 -0.000000 0.227039 0.165481 -0.125147 -42.884734 96.682320 -0.000000 0.407794 0.467207 -0.367017
7.530000 84.188582 127.062882 -0.000000 0.219016 0.171162 -0.125446 -45.118431 111.395907 -0.000000 0.413978 0.461430 -0.367283
7.535000 76.036287 101.393797 -0.000000 0.211779 0.177140 -0.125411 -47.257786 127.915392 -0.000000 0.419684 0.454896 -0.367672
7.540000 68.104904 77.154460 -0.000000 0.205048 0.183702 -0.125289 -49.389051 146.003571 -0.000000 0.425034 0.447778 -0.368105
7.545000 60.440048 54.732463 -0.000000 0.198836 0.190627 -0.125205 -51.874510 165.185635 -0.000000 0.429873 0.439934 -0.368450
7.550000 53.095605 34.356977 -0.000000 0.193091 0.197990 -0.125076 -54.891971 184.943729 -0.000000 0.434765 0.431667 -0.369024
7.555000 45.971476 16.265519 -0.000000 0.187840 0.205764 -0.124991 -58.850374 204.650902 -0.000000 0.439164 0.422788 -0.369418
7.560000 38.998828 0.573093 -0.000000 0.183069 0.213755 -0.124830 -64.007920 223.783212 -0.000000 0.443267 0.413485 -0.369606
7.565000 32.129300 -12.671756 -0.000000 0.178984 0.222258 -0.124752 -70.364579 242.013744 -0.000000 0.447126 0.403828 -0.369732
7.570000 25.374996 -23.418580 -0.000000 0.175291 0.230979 -0.124755 -77.899389 259.186657 -0.000000 0.450488 0.393711 -0.369858
7.575000 18.854673 -31.649768 -0.000000 0.172296 0.240015 -0.124706 -86.581534 275.342043 -0.000000 0.453731 0.383524 -0.369978
7.580000 12.744803 -37.428758 -0.000000 0.169655 0.249236 -0.124693 -96.210511 290.765591 -0.000000 0.456474 0.373176 -0.369995
7.585000 7.241743 -40.900500 -0.000000 0.167718 0.258644 -0.124678 -106.584236 305.893031 -0.000000 0.458757 0.362677 -0.369926
7.590000 2.472214 -42.288572 -0.000000 0.166357 0.268237 -0.124631 -117.012129 321.369807 -0.000000 0.460620 0.351874 -0.369924
7.595000 -1.404446 -41.849338 -0.000000 0.165659 0.278001 -0.124659 -127.215561 337.597105 -0.000000 0.461817 0.341036 -0.369873
7.600000 -4.382616 -39.864539 -0.000000 0.165502 0.288146 -0.124667 -136.165122 355.114998 -0.000000 0.462507 0.330118 -0.369859
7.605000 -6.410734 -36.616482 -0.000000 0.165796 0.298184 -0.124697 -143.819169 374.024186 -0.000000 0.462901 0.319094 -0.370184
7.610000 -7.552946 -32.371106 -0.000000 0.166611 0.308413 -0.124622 -149.567590 394.599231 -0.000000 0.462484 0.308028 -0.369832
7.615000 -7.822484 -27.399560 -0.000000 0.168482 0.318670 -0.124684 -153.523757 416.774061 -0.000000 0.461519 0.297172 -0.369626
7.620000 -7.307306 -21.954904 -0.000000 0.170484 0.328966 -0.124822 -154.906840 440.749126 -0.000000 0.459914 0.286165 -0.369619
7.625000 -6.049785 -16.315542 -0.000000 0.173426 0.339265 -0.124939 -154.026024 466.273999 -0.000000 0.457753 0.275430 -0.369550
7.630000 -4.193264 -10.753561 -0.000000 0.176753 0.349542 -0.125156 -150.661575 493.239508 -0.000000 0.454986 0.264845 -0.369392
7.635000 -1.945914 -5.514819 -0.000000 0.180596 0.359801 -0.125211 -144.702672 521.410487 -0.000000 0.451694 0.254454 -0.369254
7.640000 0.433777 -0.773600 -0.000000 0.185142 0.369787 -0.125376 -136.385120 550.362313 -0.000000 0.447776 0.244394 -0.369146
7.645000 2.655139 3.401657 -0.000000 0.190290 0.379575 -0.125526 -125.549176 579.708112 -0.000000 0.443305 0.234742 -0.368945
7.650000 4.446699 7.054678 -0.000000 0.195844 0.389174 -0.125642 -111.631999 609.072141 -0.000000 0.438229 0.225234 -0.368562
7.655000 5.577036 10.337634 -0.000000 0.201968 0.398461 -0.125817 -95.164151 637.788568 -0.000000 0.432745 0.216112 -0.368663
7.660000 5.882315 13.480119 -0.000000 0.208497 0.407520 -0.125966 -76.183617 665.216254 -0.000000 0.426743 0.207490 -0.368368
7.665000 5.294750 16.781129 -0.000000 0.215576 0.416239 -0.126167 -54.446799 690.633119 -0.000000 0.420257 0.199204 -0.368290
7.670000 3.872009 20.607533 -0.000000 0.223166 0.424815 -0.126294 -30.032422 713.219050 -0.000000 0.413366 0.191281 -0.368047
7.675000 1.783419 25.353869 -0.000000 0.231071 0.432910 -0.126517 -4.462138 732.162328 -0.000000 0.405965 0.184055 -0.367866
7.680000 -0.636185 31.353146 -0.000000 0.239327 0.440743 -0.126661 22.347924 746.877660 -0.000000 0.398172 0.177274 -0.367761
7.685000 -3.065327 38.820655 -0.000000 0.247915 0.447769 -0.126791 48.888761 756.980013 -0.000000 0.390059 0.171019 -0.367644
7.690000 -5.164173 47.806609 -0.000000 0.256649 0.454534 -0.127119 74.859441 762.292331 -0.000000 0.381604 0.165384 -0.367136
7.695000 -6.633488 58.194437 -0.000000 0.265918 0.460620 -0.126934 100.109488 762.726999 -0.000000 0.372910 0.160264 -0.367093
7.700000 -7.390225 69.689616 -0.000000 0.275013 0.466421 -0.127285 122.875976 758.505594 -0.000000 0.363994 0.155750 -0.366921
7.705000 -7.277367 81.877459 -0.000000 0.284365 0.471334 -0.127455 143.932503 749.588463 -0.000000 0.354630 0.151907 -0.366595
7.710000 -6.453287 94.230868 -0.000000 0.293794 0.475675 -0.127685 161.916088 736.301299 -0.000000 0.345320 0.148588 -0.366481
7.715000 -5.056245 106.218585 -0.000000 0.303168 0.479440 -0.127820 176.879492 718.740433 -0.000000 0.335856 0.145954 -0.366322
7.720000 -3.226411 117.389355 -0.000000 0.312802 0.482526 -0.128001 189.322573 696.854742 -0.000000 0.326336 0.144034 -0.366327
7.725000 -1.484845 127.456384 -0.000000 0.322322 0.484952 -0.128008 197.746914 671.155646 -0.000000 0.317205 0.143047 -0.366903
7.730000 0.373320 136.367310 -0.000000 0.331713 0.486795 -0.128070 204.513417 641.136806 -0.000000 0.307367 0.142495 -0.366850
7.735000 2.137051 144.250339 -0.000000 0.341248 0.487973 -0.128403 208.876152 607.233256 -0.000000 0.297451 0.142176 -0.367000
7.740000 3.528679 151.374076 -0.000000 0.350452 0.488319 -0.128456 209.755776 570.185788 -0.000000 0.287853 0.143113 -0.366708
7.745000 4.740888 158.081989 -0.000000 0.359440 0.487880 -0.128333 207.981629 530.217419 -0.000000 0.278310 0.144645 -0.366595
7.750000 6.004781 164.773564 -0.000000 0.368527 0.486709 -0.128311 204.192029 487.690929 -0.000000 0.268845 0.146943 -0.366452
7.755000 6.969805 171.903204 -0.000000 0.376878 0.485031 -0.128123 197.187507 443.852893 -0.000000 0.259615 0.149953 -0.366249
7.760000 8.108406 179.865141 -0.000000 0.385104 0.482555 -0.127603 188.196930 399.053127 -0.000000 0.250641 0.153655 -0.366071
7.765000 9.560679 188.970498 -0.000000 0.393087 0.479229 -0.127157 177.388508 354.155172 -0.000000 0.241923 0.157970 -0.365864
7.770000 11.174796 199.425598 -0.000000 0.400539 0.475264 -0.126909 164.611650 310.271877 -0.000000 0.233716 0.162885 -0.365697
7.775000 13.055644 211.294769 -0.000000 0.407475 0.470636 -0.126676 150.488756 268.161616 -0.000000 0.226040 0.168433 -0.365281
7.780000 15.673619 224.482898 -0.000000 0.414347 0.465265 -0.126023 136.068263 228.258325 -0.000000 0.218482 0.174449 -0.365567
7.785000 18.457754 238.840220 -0.000000 0.420716 0.459395 -0.125662 121.229333 191.535458 -0.000000 0.211434 0.180875 -0.365528
7.790000 21.302428 254.084382 -0.000000 0.426501 0.453118 -0.125329 106.601426 158.370546 -0.000000 0.204758 0.187815 -0.365456
7.795000 24.466845 269.804135 -0.000000 0.431886 0.445997 -0.124873 92.900755 128.823855 -0.000000 0.198146 0.195128 -0.364136
7.800000 27.033112 285.621591 -0.000000 0.436925 0.438550 -0.125026 80.109595 103.208882 -0.000000 0.192429 0.202789 -0.363948
7.805000 29.392641 300.998949 -0.000000 0.441537 0.430057 -0.124899 68.778182 81.197377 -0.000000 0.187273 0.210838 -0.363802
7.810000 30.799261 315.504501 -0.000000 0.445723 0.421277 -0.124751 58.909263 62.648972 -0.000000 0.182645 0.219141 -0.363721
7.815000 31.138536 328.734057 -0.000000 0.449540 0.412139 -0.124666 50.624235 47.128489 -0.000000 0.178529 0.227744 -0.363638
7.820000 30.434564 340.444472 -0.000000 0.453012 0.402469 -0.124740 43.914238 34.153623 -0.000000 0.174945 0.236663 -0.363538
7.825000 27.985851 350.667660 -0.000000 0.456126 0.392768 -0.124811 38.616757 23.355127 -0.000000 0.172245 0.245852 -0.363511
7.830000 24.827841 359.500721 -0.000000 0.458953 0.382336 -0.124818 34.657881 14.230150 -0.000000 0.169741 0.255199 -0.363449
7.835000 20.301171 367.369396 -0.000000 0.461038 0.371792 -0.124933 31.801101 6.579061 -0.000000 0.167796 0.264826 -0.363322
7.840000 14.956633 374.737390 -0.000000 0.462790 0.361017 -0.125162 29.890702 0.174714 -0.000000 0.166472 0.274667 -0.363285
7.845000 8.936776 382.129930 -0.000000 0.463762 0.350089 -0.124886 28.794949 -5.077079 -0.000000 0.165668 0.284638 -0.363198
7.850000 2.547604 390.012530 -0.000000 0.464027 0.339077 -0.125295 28.446961 -9.215867 -0.000000 0.165452 0.294648 -0.363169
7.855000 -3.509191 398.794655 -0.000000 0.464265 0.327967 -0.125109 28.820901 -12.302616 -0.000000 0.165828 0.304820 -0.363124
7.860000 -9.352382 408.847667 -0.000000 0.463622 0.316928 -0.125339 29.927891 -14.385865 -0.000000 0.166715 0.315088 -0.363251
7.865000 -14.769081 420.468934 -0.000000 0.463430 0.305868 -0.124008 31.744750 -15.609821 -0.000000 0.168221 0.325349 -0.363307
7.870000 -19.351384 433.879769 -0.000000 0.461310 0.294790 -0.125212 34.179998 -16.226303 -0.000000 0.170234 0.335602 -0.363304
7.875000 -21.773641 449.277570 -0.000000 0.459389 0.282871 -0.125107 37.037958 -16.643867 -0.000000 0.172792 0.345873 -0.363352
7.880000 -24.436755 466.583724 -0.000000 0.456903 0.271977 -0.125177 40.192722 -16.979317 -0.000000 0.175951 0.356111 -0.363382
7.885000 -25.404698 485.775714 -0.000000 0.453926 0.261126 -0.125589 43.294303 -17.649880 -0.000000 0.179723 0.366378 -0.363434
7.890000 -25.408221 506.496032 -0.000000 0.450503 0.250677 -0.125668 46.049989 -18.755355 -0.000000 0.184072 0.376289 -0.363520
7.895000 -23.720899 528.238588 -0.000000 0.446240 0.240875 -0.126294 48.122107 -20.397009 -0.000000 0.188992 0.386047 -0.363638
7.900000 -19.497765 550.327273 -0.000000 0.441907 0.231093 -0.125977 49.238236 -22.572058 -0.000000 0.194497 0.395695 -0.363773
7.905000 -12.996021 571.967718 -0.000000 0.436878 0.221628 -0.125840 49.282209 -25.104252 -0.000000 0.200442 0.404875 -0.363748
7.910000 -3.662983 592.368149 -0.000000 0.431164 0.212605 -0.125877 48.214408 -27.854428 -0.000000 0.206912 0.413786 -0.363945
7.915000 8.457402 610.672797 -0.000000 0.424991 0.203927 -0.125885 46.089081 -30.615999 -0.000000 0.213906 0.422357 -0.364014
7.920000 22.980860 626.008036 -0.000000 0.418501 0.195713 -0.125939 43.008139 -33.154151 -0.000000 0.221360 0.430637 -0.364150
7.925000 39.588995 637.521695 -0.000000 0.411454 0.187971 -0.126135 39.081416 -35.235524 -0.000000 0.229120 0.438388 -0.364096
7.930000 57.050696 644.476118 -0.000000 0.404140 0.180755 -0.126186 34.475260 -36.563357 -0.000000 0.236772 0.445810 -0.363387
